<svg id="Capa_3" data-name="Capa 3" xmlns="http://www.w3.org/2000/svg" viewBox="0 0 24 24"><path d="M17,21.24a.51.51,0,0,1-.5-.5V18.25a.51.51,0,0,1,.15-.35l1.24-1.25a.53.53,0,0,1,.71,0l1.24,1.25a.51.51,0,0,1,.15.35v2.49a.51.51,0,0,1-.5.5.5.5,0,0,1-.5-.5V18.46l-.75-.75-.74.75v2.28A.5.5,0,0,1,17,21.24Z"/><path d="M15.32,21.24a.5.5,0,0,1-.5-.5V14.12a.5.5,0,0,1,.36-.48l2.89-.84a.53.53,0,0,1,.44.08.51.51,0,0,1,.2.4V17a.5.5,0,0,1-.5.5.51.51,0,0,1-.5-.5V14l-1.89.55v6.24A.51.51,0,0,1,15.32,21.24Z"/><path d="M13.28,21.23a.5.5,0,0,1-.5-.5v-6a.5.5,0,0,1,.5-.5.5.5,0,0,1,.5.5v6A.5.5,0,0,1,13.28,21.23Z"/><path d="M16.15,14.37a.5.5,0,0,1-.5-.5V7.22H13.78v5.16a.5.5,0,0,1-.5.5.5.5,0,0,1-.5-.5V6.72a.5.5,0,0,1,.5-.5h2.87a.5.5,0,0,1,.5.5v7.15A.5.5,0,0,1,16.15,14.37Z"/><path d="M9.53,21.25a.5.5,0,0,1-.5-.5V17.9a.5.5,0,0,1,.5-.5.5.5,0,0,1,.5.5v2.85A.5.5,0,0,1,9.53,21.25Z"/><path d="M13.28,16.26h-.43a.5.5,0,0,1,0-1h.43a.5.5,0,0,1,0,1Z"/><path d="M14.71,7.22a.5.5,0,0,1-.5-.5V3.24a.51.51,0,0,1,.5-.5.5.5,0,0,1,.5.5V6.72A.5.5,0,0,1,14.71,7.22Z"/><path d="M20.59,21.26H8.2a.5.5,0,0,1-.5-.5.5.5,0,0,1,.5-.5H20.59a.5.5,0,0,1,.5.5A.5.5,0,0,1,20.59,21.26Z"/><path d="M9.09,18.43A4.86,4.86,0,1,1,14,13.57,4.87,4.87,0,0,1,9.09,18.43Zm0-8.72A3.86,3.86,0,1,0,13,13.57,3.86,3.86,0,0,0,9.09,9.71Z"/><path d="M3.41,19.78a.54.54,0,0,1-.36-.14.51.51,0,0,1,0-.71l2.62-2.62a.5.5,0,1,1,.71.71L3.76,19.64A.52.52,0,0,1,3.41,19.78Z"/><path d="M11.34,14.06a.5.5,0,0,1-.5-.5,1.75,1.75,0,0,0-1.75-1.75.5.5,0,0,1,0-1,2.75,2.75,0,0,1,2.75,2.75A.5.5,0,0,1,11.34,14.06Z"/></svg>