<svg id="Capa_3" data-name="Capa 3" xmlns="http://www.w3.org/2000/svg" viewBox="0 0 24 24"><path d="M8.45,12.53A.5.5,0,0,1,8,12V5.58a.5.5,0,0,1,.5-.5h7.62a.5.5,0,0,1,0,1H9V12A.51.51,0,0,1,8.45,12.53Z"/><path d="M18.51,17.31H13.1a.5.5,0,0,1-.5-.5.5.5,0,0,1,.5-.5H18v-8a.5.5,0,0,1,.5-.5.5.5,0,0,1,.5.5v8.5A.5.5,0,0,1,18.51,17.31Z"/><path d="M18.51,8.81a.51.51,0,0,1-.37-.17L15.7,5.91a.5.5,0,0,1,.74-.66L18.89,8a.51.51,0,0,1,0,.71A.55.55,0,0,1,18.51,8.81Z"/><path d="M15.67,9.28H10.53a.5.5,0,0,1-.5-.5V5.58a.5.5,0,0,1,.5-.5h5.14a.5.5,0,0,1,.5.5v3.2A.5.5,0,0,1,15.67,9.28ZM11,8.28h4.14V6.08H11Z"/><circle cx="13.46" cy="12.58" r="1.67"/><path d="M11.41,15.1V17a.54.54,0,0,1-.59.47H9V18a.46.46,0,0,1-.37.43.54.54,0,0,1-.22,0A.72.72,0,0,1,8,18.29l-2.37-1.9A.44.44,0,0,1,5.49,16c0-.23,0-.29,2.55-2.22a.69.69,0,0,1,.64-.1.49.49,0,0,1,.36.44v.47h1.78A.54.54,0,0,1,11.41,15.1Z"/></svg>