<svg id="Capa_3" data-name="Capa 3" xmlns="http://www.w3.org/2000/svg" viewBox="0 0 24 24"><defs><style>.cls-1{fill:none;stroke:#1d1d1b;stroke-linecap:round;stroke-linejoin:round;}</style></defs><rect class="cls-1" x="4.5" y="4.73" width="2.81" height="2.81" transform="translate(3.27 -1.96) rotate(25.92)"/><polyline class="cls-1" points="8.46 7.35 9.69 4.83 7.16 3.6"/><line class="cls-1" x1="9.69" y1="4.82" x2="7.81" y2="5.47"/><line class="cls-1" x1="5.25" y1="4.26" x2="7.16" y2="3.6"/><line class="cls-1" x1="6.55" y1="8.01" x2="8.46" y2="7.35"/><polyline class="cls-1" points="8.68 14.23 11.75 14.23 14.85 14.23 14.85 14.28 14.85 20.4 8.68 20.4 8.68 17.12"/><polyline class="cls-1" points="11.74 14.24 11.74 11.18 17.91 11.18"/><line class="cls-1" x1="17.91" y1="17.34" x2="17.91" y2="15.31"/><line class="cls-1" x1="14.85" y1="20.4" x2="17.91" y2="17.34"/><polyline class="cls-1" points="17.91 11.18 19.98 13.24 17.91 15.31 16.89 16.33 14.85 14.28 14.83 14.26 14.85 14.24 17.91 11.18"/><polyline class="cls-1" points="11.74 11.18 8.68 14.23 7.87 17.12 13.79 17.12 14.85 14.24"/></svg>