<svg id="Capa_3" data-name="Capa 3" xmlns="http://www.w3.org/2000/svg" viewBox="0 0 24 24"><defs><style>.cls-1{fill:none;stroke:#000;stroke-linecap:round;stroke-linejoin:round;}</style></defs><path class="cls-1" d="M6.16,9v.42L6.59,9"/><line class="cls-1" x1="17.81" y1="9.41" x2="17.35" y2="8.95"/><polyline class="cls-1" points="9.09 8.95 6.17 11.85 6.17 20.41 9.79 20.41 13.79 20.41 17.8 20.41 17.8 11.9 14.87 8.95"/><polyline class="cls-1" points="2.98 12.53 6.17 9.37 6.58 8.95 11.98 3.59 17.34 8.95 17.8 9.41 21.02 12.62"/><polyline class="cls-1" points="6.16 11.84 6.17 11.85 9.09 8.95 11.98 6.07 14.87 8.95 17.8 11.9 17.8 11.9"/><path class="cls-1" d="M6.16,9.37V6.07"/><line class="cls-1" x1="12" y1="17.42" x2="12" y2="12.58"/><line class="cls-1" x1="9.58" y1="15" x2="14.42" y2="15"/></svg>