<?xml version="1.0" encoding="UTF-8"?>
<svg id="Capa_3" data-name="Capa 3" xmlns="http://www.w3.org/2000/svg" viewBox="0 0 24 24">
  <defs>
    <style>
      .cls-1 {
        stroke-miterlimit: 10;
      }

      .cls-1, .cls-2 {
        fill: none;
        stroke: #000;
      }

      .cls-2 {
        stroke-linecap: round;
        stroke-linejoin: round;
      }
    </style>
  </defs>
  <path class="cls-1" d="m6.43,16.9h11.14c.3,0,.48-.34.31-.59l-2.99-4.37c-.15-.22-.47-.22-.62,0l-.86,1.18c-.15.21-.46.21-.61,0l-1.9-2.6c-.15-.21-.46-.21-.61,0l-4.15,5.79c-.18.25,0,.6.31.6Z"/>
  <g>
    <circle class="cls-1" cx="7.17" cy="8.45" r="1.48"/>
    <line class="cls-2" x1="18.25" y1="5.86" x2="18.25" y2="10.01"/>
    <line class="cls-2" x1="16.17" y1="7.94" x2="20.32" y2="7.94"/>
    <path class="cls-2" d="m20.17,11.97v6.19c0,.56-.45,1.01-1.01,1.01H4.69c-.56,0-1.01-.45-1.01-1.01l.05-12.26c0-.56.45-1.01,1.01-1.01h10.4"/>
  </g>
</svg>