<?xml version="1.0" encoding="UTF-8"?>
<svg id="Layer_2" data-name="Layer 2" xmlns="http://www.w3.org/2000/svg" viewBox="0 0 17.94 15.32">
  <defs>
    <style>
      .cls-1 {
        fill: #f8f8f8;
      }
    </style>
  </defs>
  <g id="Capa_3" data-name="Capa 3">
    <g>
      <g>
        <path class="cls-1" d="m15,6.51c-.33,0-.6-.27-.6-.6V1.22c0-.33.27-.6.6-.6s.6.27.6.6v4.68c0,.33-.27.6-.6.6Z"/>
        <path class="cls-1" d="m17.34,4.17h-4.68c-.33,0-.6-.27-.6-.6s.27-.6.6-.6h4.68c.33,0,.6.27.6.6s-.27.6-.6.6Z"/>
      </g>
      <path class="cls-1" d="m15.84,15.32H1.59c-.88,0-1.59-.72-1.59-1.6V1.6C0,.72.72,0,1.59,0h10.2c.28,0,.51.23.51.51s-.23.51-.51.51H1.59c-.31,0-.57.26-.57.57v12.13c0,.31.26.57.57.57h14.24c.31,0,.57-.26.57-.57v-6.15c0-.28.23-.51.51-.51s.51.23.51.51v6.15c0,.88-.72,1.6-1.6,1.6Z"/>
      <path class="cls-1" d="m14.79,13.16H3.16c-.33,0-.63-.18-.78-.48-.15-.29-.13-.64.07-.91l4.29-5.99c.18-.25.47-.4.77-.4h0c.3,0,.59.15.77.39l1.72,2.37.69-.95c.18-.25.47-.44.77-.39.31,0,.59.15.77.4l3.26,4.58c.19.27.22.62.07.91s-.45.47-.78.47Zm-11.13-1.13h10.63l-2.82-3.97-1.46,2-2.49-3.42-3.85,5.38Z"/>
      <path class="cls-1" d="m3.96,6.09c-1.08,0-1.97-.88-1.97-1.97s.88-1.97,1.97-1.97,1.97.88,1.97,1.97-.88,1.97-1.97,1.97Zm0-2.9c-.52,0-.94.42-.94.94s.42.94.94.94.94-.42.94-.94-.42-.94-.94-.94Z"/>
    </g>
  </g>
</svg>