<svg id="Capa_3" data-name="Capa 3" xmlns="http://www.w3.org/2000/svg" viewBox="0 0 24 24"><defs><style>.cls-1{fill:#1d1d1b;}</style></defs><path class="cls-1" d="M10.18,4.69s0,0,0,0a.2.2,0,0,0,0-.08v0L10,4.46a.5.5,0,0,0-.12-.08l-.09,0L7.46,3.19a.2.2,0,0,0-.08,0l-.11,0a.43.43,0,0,0-.25,0H7l-1.9.66a.44.44,0,0,0-.16.1l0,0A.34.34,0,0,0,4.83,4l0,.09L3.58,6.56a.5.5,0,0,0,.23.67L6.27,8.42a.48.48,0,0,0,.29.09.45.45,0,0,0,.16,0L8.6,7.83h0a.23.23,0,0,0,.12-.06A.53.53,0,0,0,9,7.5l1.18-2.42,0,0,0-.08a.51.51,0,0,0,0-.13A.77.77,0,0,0,10.18,4.69Zm-3-.55,1.25.61-.57.19L6.57,4.33Zm-1.65.78,1.63.79L6.33,7.34,4.7,6.55ZM8.11,7l-.57.19.61-1.25.57-.2Z"/><path class="cls-1" d="M18.24,10.8l0,0h0Z"/><path class="cls-1" d="M20.34,12.89l-2.07-2.06,0,0a.57.57,0,0,0-.13-.08h0a.43.43,0,0,0-.19,0H11.75a.43.43,0,0,0-.19,0,.29.29,0,0,0-.12.07.09.09,0,0,0,0,0L8.33,13.88a.48.48,0,0,0-.12.22v0L7.39,17a.51.51,0,0,0,.49.64h.31V20.4a.5.5,0,0,0,.5.5h6.17a.39.39,0,0,0,.18,0h0a.57.57,0,0,0,.16-.11l3.06-3.06a.49.49,0,0,0,.1-.15l0-.1a.38.38,0,0,0,0-.1V15.52l1.93-1.92a.52.52,0,0,0,.14-.35A.52.52,0,0,0,20.34,12.89Zm-9.09-.51v1.35H9.9ZM8.54,16.62l.53-1.89h5.07l-.7,1.89Zm5.82,3.28H9.19V17.62h4.6a.5.5,0,0,0,.47-.33l.1-.27Zm.3-6.17H12.25V11.68H16.7Zm2.75,3.41-2.05,2.05v-3.7l1.19,1.19a.48.48,0,0,0,.7,0l.16-.16ZM17.5,15l-.6.59-1.36-1.36,2.37-2.38,1.37,1.37Z"/></svg>