<?xml version="1.0" encoding="UTF-8"?>
<svg id="Layer_2" data-name="Layer 2" xmlns="http://www.w3.org/2000/svg" viewBox="0 0 68.5 72">
  <defs>
    <style>
      .cls-1 {
        fill: none;
        stroke: #ffe45a;
        stroke-linecap: round;
        stroke-linejoin: round;
      }
    </style>
  </defs>
  <g id="Capa_3" data-name="Capa 3">
    <g>
      <g>
        <polygon class="cls-1" points="11.19 19.15 .5 13.96 5.7 3.29 16.39 8.47 11.19 19.15"/>
        <polyline class="cls-1" points="19.28 16.37 24.47 5.7 13.75 .5"/>
        <line class="cls-1" x1="24.46" y1="5.69" x2="16.52" y2="8.43"/>
        <line class="cls-1" x1="5.7" y1="3.29" x2="13.77" y2=".5"/>
        <line class="cls-1" x1="11.19" y1="19.15" x2="19.26" y2="16.36"/>
      </g>
      <g>
        <polyline class="cls-1" points="20.2 45.44 33.18 45.44 46.31 45.44 46.31 45.62 46.31 71.5 20.2 71.5 20.2 57.61"/>
        <polyline class="cls-1" points="33.17 45.45 33.17 32.53 59.25 32.53"/>
        <line class="cls-1" x1="59.25" y1="58.56" x2="59.25" y2="50"/>
        <line class="cls-1" x1="46.3" y1="71.48" x2="59.24" y2="58.56"/>
        <polyline class="cls-1" points="59.25 32.53 68 41.26 59.25 50 54.96 54.28 46.3 45.63 46.21 45.54 46.3 45.45 59.25 32.53"/>
        <polyline class="cls-1" points="33.15 32.51 20.2 45.44 16.77 57.61 41.81 57.61 46.3 45.45"/>
      </g>
    </g>
  </g>
</svg>