<?xml version="1.0" encoding="UTF-8"?>
<svg id="Capa_3" data-name="Capa 3" xmlns="http://www.w3.org/2000/svg" viewBox="0 0 24 24">
  <defs>
    <style>
      .cls-1 {
        fill: none;
        stroke: #a98aff;
        stroke-linecap: round;
        stroke-linejoin: round;
      }
    </style>
  </defs>
  <g>
    <polygon class="cls-1" points="6.19 7.76 3.5 6.45 4.81 3.76 7.5 5.07 6.19 7.76"/>
    <polyline class="cls-1" points="8.23 7.06 9.54 4.37 6.84 3.06"/>
    <line class="cls-1" x1="9.53" y1="4.37" x2="7.53" y2="5.06"/>
    <line class="cls-1" x1="4.81" y1="3.76" x2="6.84" y2="3.06"/>
    <line class="cls-1" x1="6.19" y1="7.76" x2="8.23" y2="7.05"/>
  </g>
  <g>
    <polyline class="cls-1" points="8.46 14.38 11.73 14.38 15.04 14.38 15.04 14.42 15.04 20.94 8.46 20.94 8.46 17.44"/>
    <polyline class="cls-1" points="11.73 14.38 11.73 11.13 18.3 11.13"/>
    <line class="cls-1" x1="18.3" y1="17.68" x2="18.3" y2="15.52"/>
    <line class="cls-1" x1="15.03" y1="20.94" x2="18.3" y2="17.68"/>
    <polyline class="cls-1" points="18.3 11.13 20.5 13.32 18.3 15.52 17.22 16.6 15.03 14.42 15.01 14.4 15.03 14.38 18.3 11.13"/>
    <polyline class="cls-1" points="11.72 11.12 8.46 14.38 7.6 17.44 13.9 17.44 15.03 14.38"/>
  </g>
</svg>