<svg id="Capa_3" data-name="Capa 3" xmlns="http://www.w3.org/2000/svg" viewBox="0 0 24 24"><defs><style>.cls-1{fill:#ffe45a;}</style></defs><path class="cls-1" d="M18.27,4.71H15.52L14.25,3.44a1.28,1.28,0,0,0-.94-.38l-2.71,0a1.34,1.34,0,0,0-.89.38L8.48,4.71H8V3.88H6v.83H5.73a2.5,2.5,0,0,0-2.5,2.5v9.24A2.5,2.5,0,0,0,5.73,19H18.27a2.5,2.5,0,0,0,2.5-2.5V7.21A2.5,2.5,0,0,0,18.27,4.71Zm1.5,11.74a1.5,1.5,0,0,1-1.5,1.5H5.73a1.5,1.5,0,0,1-1.5-1.5V7.21a1.5,1.5,0,0,1,1.5-1.5H8.67a.76.76,0,0,0,.55-.24l.71-.76.48-.52a.4.4,0,0,1,.21-.09l2.71,0a.28.28,0,0,1,.21.08l.53.57.71.76a.76.76,0,0,0,.55.24h2.94a1.5,1.5,0,0,1,1.5,1.5Z"/><path class="cls-1" d="M12.62,9.64a2.5,2.5,0,0,0-3,3,2.46,2.46,0,0,0,1.8,1.8,2.5,2.5,0,0,0,3-3A2.46,2.46,0,0,0,12.62,9.64ZM12,13.56a1.5,1.5,0,1,1,1.5-1.5A1.5,1.5,0,0,1,12,13.56Z"/><path class="cls-1" d="M13.24,7.65A4.59,4.59,0,0,0,7.59,13.3a4.53,4.53,0,0,0,3.17,3.17,4.59,4.59,0,0,0,5.65-5.65A4.53,4.53,0,0,0,13.24,7.65Zm-.54,7.91a3.57,3.57,0,1,1,2.8-2.8A3.57,3.57,0,0,1,12.7,15.56Z"/><rect class="cls-1" x="16.57" y="7.49" width="2" height="1"/></svg>