<svg id="Capa_3" data-name="Capa 3" xmlns="http://www.w3.org/2000/svg" viewBox="0 0 24 24"><defs><style>.cls-1{fill:#ffe45a;}</style></defs><path class="cls-1" d="M5.2,15.87a.5.5,0,0,1-.5-.5V12.71a.5.5,0,0,1,.5-.5.5.5,0,0,1,.5.5v2.66A.5.5,0,0,1,5.2,15.87Z"/><path class="cls-1" d="M7.86,19.81l-.17,0L3,18.11a.55.55,0,0,1-.28-.26.5.5,0,0,1,0-.38L3.58,15a.49.49,0,0,1,.63-.3L8.9,16.38a.48.48,0,0,1,.29.25.53.53,0,0,1,0,.39l-.88,2.45A.49.49,0,0,1,7.86,19.81ZM3.81,17.33l3.75,1.34.54-1.52L4.35,15.82Z"/><path class="cls-1" d="M4.46,13.8a.47.47,0,0,1-.35-.15.48.48,0,0,1,0-.7l1.18-1.19a.5.5,0,0,1,.71,0,.51.51,0,0,1,0,.71L4.81,13.65A.49.49,0,0,1,4.46,13.8Z"/><path class="cls-1" d="M4.46,11.34a.5.5,0,0,1-.35-.85L5.29,9.3A.5.5,0,0,1,6,10L4.81,11.2A.52.52,0,0,1,4.46,11.34Z"/><path class="cls-1" d="M4.46,8.89a.47.47,0,0,1-.35-.15.5.5,0,0,1,0-.71L5.29,6.85a.5.5,0,0,1,.71,0,.5.5,0,0,1,0,.7L4.81,8.74A.49.49,0,0,1,4.46,8.89Z"/><path class="cls-1" d="M4.43,6.43a.54.54,0,0,1-.35-.14.5.5,0,0,1,0-.71L5.32,4.34a.5.5,0,0,1,.7,0,.5.5,0,0,1,0,.71L4.79,6.29A.54.54,0,0,1,4.43,6.43Z"/><path class="cls-1" d="M19.36,13.42a.5.5,0,0,1-.5-.51V10.25a.5.5,0,0,1,1,0v2.66A.5.5,0,0,1,19.36,13.42Z"/><path class="cls-1" d="M16.7,17.35a.5.5,0,0,1-.21-.05.48.48,0,0,1-.26-.28l-.88-2.46a.51.51,0,0,1,.31-.64l4.69-1.67a.5.5,0,0,1,.64.3L21.86,15a.5.5,0,0,1-.3.64l-4.69,1.67A.51.51,0,0,1,16.7,17.35Zm-.24-2.65L17,16.21l3.75-1.33-.54-1.52Z"/><path class="cls-1" d="M20.1,11.34a.54.54,0,0,1-.35-.14L18.56,10a.5.5,0,0,1,.71-.71l1.19,1.19a.51.51,0,0,1,0,.71A.54.54,0,0,1,20.1,11.34Z"/><path class="cls-1" d="M20.1,8.89a.5.5,0,0,1-.35-.15L18.56,7.55a.5.5,0,0,1,0-.7.5.5,0,0,1,.71,0L20.46,8a.51.51,0,0,1,0,.71A.51.51,0,0,1,20.1,8.89Z"/><path class="cls-1" d="M20.13,6.43a.5.5,0,0,1-.35-.14L18.54,5.05a.5.5,0,0,1,0-.71.51.51,0,0,1,.71,0l1.23,1.24a.5.5,0,0,1-.35.85Z"/><path class="cls-1" d="M20.61,5.21h-18a.5.5,0,0,1-.5-.5.5.5,0,0,1,.5-.5h18a.5.5,0,0,1,.5.5A.51.51,0,0,1,20.61,5.21Z"/></svg>