<?xml version="1.0" encoding="UTF-8"?>
<svg id="Capa_3" data-name="Capa 3" xmlns="http://www.w3.org/2000/svg" viewBox="0 0 24 24">
  <defs>
    <style>
      .cls-1 {
        fill: none;
        stroke: #f8f8f8;
        stroke-linecap: round;
        stroke-linejoin: round;
      }
    </style>
  </defs>
  <g>
    <path class="cls-1" d="m6.16,8.95v.42l.42-.42"/>
    <line class="cls-1" x1="17.81" y1="9.41" x2="17.34" y2="8.95"/>
    <line class="cls-1" x1="17.81" y1="11.9" x2="14.86" y2="8.95"/>
    <line class="cls-1" x1="9.09" y1="8.95" x2="6.16" y2="11.85"/>
    <polyline class="cls-1" points="3.51 12.03 6.16 9.37 6.59 8.95 11.98 3.59 17.34 8.95 17.81 9.41 20.46 12.03"/>
    <polyline class="cls-1" points="6.16 11.84 6.16 11.85 9.09 8.95 11.98 6.07 14.86 8.95 17.81 11.9 17.81 11.9"/>
    <path class="cls-1" d="m6.16,9.37v-3.3"/>
  </g>
  <g>
    <g>
      <circle class="cls-1" cx="6.24" cy="13.32" r="1.43"/>
      <circle class="cls-1" cx="6.24" cy="16.17" r="1.43"/>
      <circle class="cls-1" cx="6.24" cy="19.02" r="1.43"/>
    </g>
    <g>
      <circle class="cls-1" cx="17.76" cy="13.32" r="1.43"/>
      <circle class="cls-1" cx="17.76" cy="16.17" r="1.43"/>
      <circle class="cls-1" cx="17.76" cy="19.02" r="1.43"/>
    </g>
  </g>
  <line class="cls-1" x1="6.31" y1="20.45" x2="17.69" y2="20.45"/>
  <rect class="cls-1" x="9.77" y="12.99" width="4.45" height="7.46"/>
</svg>