<svg id="Capa_3" data-name="Capa 3" xmlns="http://www.w3.org/2000/svg" viewBox="0 0 24 24"><defs><style>.cls-1{fill:#ffda1c;}</style></defs><path class="cls-1" d="M6.45,10a.43.43,0,0,1-.19,0A.5.5,0,0,1,6,9.5V9.1h.19l.36-.35.35.35H7v.1l.25.25-.4.4A.47.47,0,0,1,6.45,10Z"/><rect class="cls-1" x="16.8" y="9.01" width="1" height="0.62" transform="translate(-1.52 14.96) rotate(-45)"/><path class="cls-1" d="M17.52,20.5H6.45A.5.5,0,0,1,6,20V11.86a.49.49,0,0,1,.15-.36L8.87,8.74l.71.71L7,12.07V19.5H17V12.11L14.37,9.45l.71-.7,2.8,2.8a.52.52,0,0,1,.14.36V20A.5.5,0,0,1,17.52,20.5Z"/><path class="cls-1" d="M20.22,12.94,12,4.71l-8.2,8.15-.71-.71,8.56-8.5a.5.5,0,0,1,.71,0l8.59,8.59Z"/><path class="cls-1" d="M20.22,15.31,12,7.07l-8.2,8.15-.71-.71L11.63,6a.5.5,0,0,1,.71,0l8.59,8.59Z"/><path class="cls-1" d="M13.7,20.5H9.89a.51.51,0,0,1-.5-.5V14.64a.5.5,0,0,1,.5-.5H13.7a.5.5,0,0,1,.5.5V20A.51.51,0,0,1,13.7,20.5Zm-3.31-1H13.2V15.14H10.39Z"/><rect class="cls-1" x="5.95" y="6.36" width="1" height="3.14"/></svg>