<svg id="Capa_3" data-name="Capa 3" xmlns="http://www.w3.org/2000/svg" viewBox="0 0 24 24"><defs><style>.cls-1{fill:#d5134f;}</style></defs><path class="cls-1" d="M14.84,21H3.47A.47.47,0,0,1,3,20.53V9.16a.48.48,0,0,1,.47-.48H14.84a.49.49,0,0,1,.48.48V20.53A.48.48,0,0,1,14.84,21ZM4,20.05H14.37V9.63H4Z"/><path class="cls-1" d="M20.53,15.32H14.84v-1h5.21V4H9.63V9.16h-1V3.47A.48.48,0,0,1,9.16,3H20.53a.47.47,0,0,1,.47.47V14.84A.48.48,0,0,1,20.53,15.32Z"/><rect class="cls-1" x="13.67" y="17.21" width="8.04" height="0.95" transform="translate(-7.33 17.68) rotate(-45)"/><rect class="cls-1" x="2.3" y="5.84" width="8.04" height="0.95" transform="translate(-2.62 6.32) rotate(-45)"/><path class="cls-1" d="M11.05,21H7.26a.47.47,0,0,1-.47-.47v-6a.47.47,0,0,1,.47-.48h3.79a.48.48,0,0,1,.48.48v6A.48.48,0,0,1,11.05,21Zm-3.31-.95h2.84V15H7.74Z"/></svg>