<svg id="Capa_3" data-name="Capa 3" xmlns="http://www.w3.org/2000/svg" viewBox="0 0 24 24"><defs><style>.cls-1{fill:#ffda1c;}</style></defs><path class="cls-1" d="M10.86,18.59A5.46,5.46,0,1,1,14.72,17,5.45,5.45,0,0,1,10.86,18.59Zm0-9.9A4.45,4.45,0,1,0,14,10,4.44,4.44,0,0,0,10.86,8.69Z"/><path class="cls-1" d="M11.51,15.67,9,15l-.69-2.57,1.88-1.88,2.56.69.69,2.57ZM9.76,14.16l1.45.39,1.07-1.06L11.89,12l-1.45-.39L9.37,12.71Z"/><rect class="cls-1" x="8.04" y="8.91" width="1" height="3.57" transform="translate(-3.77 16.67) rotate(-77.25)"/><path class="cls-1" d="M6.64,15.44l-.71-.7c.09-.09,2.22-2.25,2.55-2.55l.67.74C8.9,13.16,7.25,14.82,6.64,15.44Z"/><rect class="cls-1" x="9.34" y="14.5" width="1" height="3.63" transform="translate(-4.06 3.28) rotate(-15.74)"/><rect class="cls-1" x="12.64" y="13.71" width="1" height="3.66" transform="translate(-5.06 24.64) rotate(-76.34)"/><rect class="cls-1" x="12.3" y="11.86" width="3.62" height="1" transform="translate(-4.6 13.6) rotate(-45)"/><rect class="cls-1" x="11.42" y="8.19" width="1" height="3.48" transform="translate(-1.85 2.79) rotate(-12.4)"/><path class="cls-1" d="M15.78,15.32l-.67-.74h0a3.31,3.31,0,0,0,.75-.8l0,0,0-.06.15-.24a3.58,3.58,0,0,0,.47-1.33,3.57,3.57,0,0,0,.06-.65,4.06,4.06,0,0,0-4-4,3.52,3.52,0,0,0-.66.06,3.77,3.77,0,0,0-1.32.46h0l-.24.15a3.78,3.78,0,0,0-.89.78l-.73-.69a5,5,0,0,1,.86-.79l.16-.11.2-.12a4.66,4.66,0,0,1,1.8-.67,5.33,5.33,0,0,1,.82-.07,5.06,5.06,0,0,1,5,5,5.31,5.31,0,0,1-.07.81,4.83,4.83,0,0,1-.67,1.81l-.12.2-.12.16A4.23,4.23,0,0,1,15.78,15.32Z"/><path class="cls-1" d="M17.4,12.52l-.71-.7a3.11,3.11,0,0,0,.9-2.21,3.21,3.21,0,0,0-3.2-3.2,3.11,3.11,0,0,0-2.22.91l-.7-.71a4.14,4.14,0,0,1,2.92-1.2,4.21,4.21,0,0,1,4.2,4.2A4.09,4.09,0,0,1,17.4,12.52Z"/></svg>