<?xml version="1.0" encoding="UTF-8"?>
<svg id="Layer_2" data-name="Layer 2" xmlns="http://www.w3.org/2000/svg" viewBox="0 0 151.18 151.18">
  <defs>
    <style>
      .cls-1 {
        fill: #fff;
      }
    </style>
  </defs>
  <g id="Layer_1-2" data-name="Layer 1">
    <path class="cls-1" d="m0,0h94.49v1.14S95.45,0,95.45,0h24.67s24.67,0,24.67,0h6.39v151.18H63.14s8.82-18.9,8.82-18.9l3.63-7.79,5.18-11.1,8.07-17.31,1.33-1.59h-.59s4.91-10.52,4.91-10.52l3.9-8.37,8.81-18.9,6.18-13.25,2.63-5.64h0c.57-1.21-1.05-2.24-1.91-1.22l-16.88,20.11-2.73,3.26-18.9,22.52-2.82,3.36-53.88,64.2-.96,1.14H0v-8.03s0-29.4,0-29.4l.31-.37H0V0Z"/>
  </g>
</svg>