<svg id="Capa_3" data-name="Capa 3" xmlns="http://www.w3.org/2000/svg" viewBox="0 0 24 24"><defs><style>.cls-1{fill:#845cf5;}</style></defs><rect class="cls-1" x="17.28" y="4.81" width="1" height="2.62"/><rect class="cls-1" x="16.47" y="5.62" width="2.62" height="1"/><path class="cls-1" d="M17.75,9.34a3.18,3.18,0,1,1,3.18-3.18A3.18,3.18,0,0,1,17.75,9.34Zm0-5.36a2.18,2.18,0,1,0,2.18,2.18A2.18,2.18,0,0,0,17.75,4Z"/><path class="cls-1" d="M13.29,21H3.44a.5.5,0,0,1-.5-.5V10.62a.5.5,0,0,1,.5-.5h9.85a.5.5,0,0,1,.5.5v9.85A.51.51,0,0,1,13.29,21ZM3.94,20h8.85V11.12H3.94Z"/><path class="cls-1" d="M17.74,16.51H7.89a.5.5,0,0,1-.5-.5V6.16a.5.5,0,0,1,.5-.5h5.4v1H8.39v8.85h8.85V10.62h1V16A.5.5,0,0,1,17.74,16.51Z"/><path class="cls-1" d="M13.57,20.88,13,20.05l.28.42-.3-.41c.27-.21,2.84-2.81,4.4-4.4l.71.7C16.83,17.66,13.85,20.69,13.57,20.88Z"/><rect class="cls-1" x="2.51" y="17.74" width="6.3" height="1" transform="translate(-11.24 9.35) rotate(-45)"/><rect class="cls-1" x="2.51" y="7.89" width="6.3" height="1" transform="translate(-4.27 6.46) rotate(-45)"/></svg>