<svg id="Capa_3" data-name="Capa 3" xmlns="http://www.w3.org/2000/svg" viewBox="0 0 24 24"><defs><style>.cls-1{fill:#ffe45a;}</style></defs><path class="cls-1" d="M10,11.52H7.09A1.5,1.5,0,0,1,5.59,10V7.09a1.5,1.5,0,0,1,1.5-1.5H10a1.5,1.5,0,0,1,1.5,1.5V10A1.5,1.5,0,0,1,10,11.52ZM7.09,6.59a.5.5,0,0,0-.5.5V10a.5.5,0,0,0,.5.5H10a.5.5,0,0,0,.5-.5V7.09a.5.5,0,0,0-.5-.5Z"/><path class="cls-1" d="M16.91,11.52H14a1.5,1.5,0,0,1-1.5-1.5V7.09A1.5,1.5,0,0,1,14,5.59h2.94a1.5,1.5,0,0,1,1.5,1.5V10A1.5,1.5,0,0,1,16.91,11.52ZM14,6.59a.5.5,0,0,0-.5.5V10a.5.5,0,0,0,.5.5h2.94a.5.5,0,0,0,.5-.5V7.09a.5.5,0,0,0-.5-.5Z"/><rect class="cls-1" x="14.94" y="14.14" width="1" height="2.62"/><rect class="cls-1" x="14.13" y="14.95" width="2.62" height="1"/><path class="cls-1" d="M16.91,18.41H14a1.5,1.5,0,0,1-1.5-1.5V14a1.5,1.5,0,0,1,1.5-1.5h2.94a1.5,1.5,0,0,1,1.5,1.5v2.93A1.5,1.5,0,0,1,16.91,18.41ZM14,13.48a.5.5,0,0,0-.5.5v2.93a.5.5,0,0,0,.5.5h2.94a.5.5,0,0,0,.5-.5V14a.5.5,0,0,0-.5-.5Z"/><path class="cls-1" d="M10,18.41H7.09a1.5,1.5,0,0,1-1.5-1.5V14a1.5,1.5,0,0,1,1.5-1.5H10a1.5,1.5,0,0,1,1.5,1.5v2.93A1.5,1.5,0,0,1,10,18.41ZM7.09,13.48a.5.5,0,0,0-.5.5v2.93a.5.5,0,0,0,.5.5H10a.5.5,0,0,0,.5-.5V14a.5.5,0,0,0-.5-.5Z"/></svg>