<svg id="Capa_3" data-name="Capa 3" xmlns="http://www.w3.org/2000/svg" viewBox="0 0 24 24"><defs><style>.cls-1{fill:#9772ff;}</style></defs><path class="cls-1" d="M7.8,9.64a2.26,2.26,0,1,1,2.25-2.37h0A2.27,2.27,0,0,1,7.91,9.64Zm0-3.51H7.73A1.26,1.26,0,1,0,9.05,7.32h0A1.24,1.24,0,0,0,7.8,6.13Z"/><path class="cls-1" d="M3.2,18.87A.47.47,0,0,1,3,18.8a.49.49,0,0,1-.18-.68l2.67-4.53a.4.4,0,0,1,.1-.12L7.87,11.4a.48.48,0,0,1,.47-.11l3.07.9a.53.53,0,0,1,.3.23l1.12,1.94a.5.5,0,1,1-.87.5l-1-1.76-2.61-.77L6.26,14.16,3.63,18.63A.5.5,0,0,1,3.2,18.87Z"/><path class="cls-1" d="M20.8,18.68a.5.5,0,0,1-.46-.29L17.87,12.8l-1.74-1.21a.46.46,0,0,1-.07-.07l-1.29-1.35L11.62,13a.5.5,0,1,1-.68-.74l3.52-3.2a.5.5,0,0,1,.7,0l1.59,1.67,1.81,1.26a.39.39,0,0,1,.17.21L21.25,18a.5.5,0,0,1-.25.66A.51.51,0,0,1,20.8,18.68Z"/><path class="cls-1" d="M10.67,17.86a.46.46,0,0,1-.27-.09.5.5,0,0,1-.14-.69l.19-.32c1.59-2.65,1.59-2.65,2-2.65l1-.26.8-.75a.5.5,0,0,1,.71,0,.5.5,0,0,1,0,.71l-.88.83a.72.72,0,0,1-.21.12l-1.08.29c-.19.27-.65,1-1.36,2.2l-.22.37A.51.51,0,0,1,10.67,17.86Z"/></svg>