<svg xmlns="http://www.w3.org/2000/svg" viewBox="0 0 24 24" fill="#101010" xmlns:v="https://vecta.io/nano"><path d="M7.8 9.64a2.26 2.26 0 1 1 2.25-2.37h0a2.27 2.27 0 0 1-2.14 2.37zm0-3.51h-.07a1.26 1.26 0 1 0 1.32 1.19h0A1.24 1.24 0 0 0 7.8 6.13zM3.2 18.87a.47.47 0 0 1-.2-.07.49.49 0 0 1-.18-.68l2.67-4.53a.4.4 0 0 1 .1-.12l2.28-2.07a.48.48 0 0 1 .47-.11l3.07.9a.53.53 0 0 1 .3.23l1.12 1.94a.502.502 0 1 1-.87.5l-1-1.76-2.61-.77-2.09 1.83-2.63 4.47a.5.5 0 0 1-.43.24z"/><path d="M20.8 18.68a.5.5 0 0 1-.46-.29l-2.47-5.59-1.74-1.21a.46.46 0 0 1-.07-.07l-1.29-1.35L11.62 13a.502.502 0 1 1-.68-.74l3.52-3.2a.5.5 0 0 1 .7 0l1.59 1.67 1.81 1.26a.39.39 0 0 1 .17.21l2.52 5.8a.5.5 0 0 1-.25.66.51.51 0 0 1-.2.02zm-10.13-.82a.46.46 0 0 1-.27-.09.5.5 0 0 1-.14-.69l.19-.32c1.59-2.65 1.59-2.65 2-2.65l1-.26.8-.75a.502.502 0 1 1 .71.71l-.88.83a.72.72 0 0 1-.21.12l-1.08.29c-.19.27-.65 1-1.36 2.2l-.22.37a.51.51 0 0 1-.54.24z"/></svg>