<svg id="Capa_3" data-name="Capa 3" xmlns="http://www.w3.org/2000/svg" viewBox="0 0 24 24"><defs><style>.cls-1{fill:#e01e5a;}</style></defs><path class="cls-1" d="M12,12.67a2.86,2.86,0,1,1,2.86-2.86A2.86,2.86,0,0,1,12,12.67ZM12,8a1.86,1.86,0,1,0,1.86,1.85A1.86,1.86,0,0,0,12,8Z"/><path class="cls-1" d="M16,19.15H8a.5.5,0,0,1-.5-.5V17.24a3.15,3.15,0,0,1,3.15-3.15h2.7a3.16,3.16,0,0,1,3.15,3.15v1.41A.5.5,0,0,1,16,19.15Zm-7.5-1h7v-.91a2.16,2.16,0,0,0-2.15-2.15h-2.7A2.16,2.16,0,0,0,8.5,17.24Z"/><path class="cls-1" d="M16,19.25H8a2.5,2.5,0,0,1-2.5-2.5V7.25A2.5,2.5,0,0,1,8,4.75h8a2.5,2.5,0,0,1,2.5,2.5v9.5A2.5,2.5,0,0,1,16,19.25ZM8,5.75a1.5,1.5,0,0,0-1.5,1.5v9.5A1.5,1.5,0,0,0,8,18.25h8a1.5,1.5,0,0,0,1.5-1.5V7.25A1.5,1.5,0,0,0,16,5.75Z"/></svg>