<svg id="Capa_3" data-name="Capa 3" xmlns="http://www.w3.org/2000/svg" viewBox="0 0 24 24"><path d="M12.06,18.1a.5.5,0,0,1-.5-.5V16.4a.5.5,0,0,1,.5-.5.5.5,0,0,1,.5.5v1.2A.5.5,0,0,1,12.06,18.1Z"/><path d="M8.52,21a.45.45,0,0,1-.16,0,.5.5,0,0,1-.31-.63l1.5-4.47a.5.5,0,0,1,.63-.31.51.51,0,0,1,.32.63L9,20.68A.5.5,0,0,1,8.52,21Z"/><path d="M15.6,21a.5.5,0,0,1-.47-.34l-1.54-4.46a.51.51,0,0,1,.31-.64.5.5,0,0,1,.63.31l1.55,4.46a.51.51,0,0,1-.48.67Z"/><path d="M12.06,5.25a.5.5,0,0,1-.5-.5V3.6a.5.5,0,0,1,.5-.5.5.5,0,0,1,.5.5V4.75A.5.5,0,0,1,12.06,5.25Z"/><path d="M16,14.77H8.15a.51.51,0,0,1-.5-.5V4.75a.5.5,0,0,1,.5-.5H16a.5.5,0,0,1,.5.5v9.52A.5.5,0,0,1,16,14.77Zm-7.32-1h6.82V5.25H8.65Z"/><path d="M17,16.56H7.18a.5.5,0,0,1-.5-.5V14.27a.5.5,0,0,1,.5-.5H17a.5.5,0,0,1,.5.5v1.79A.5.5,0,0,1,17,16.56Zm-9.27-1h8.77v-.79H7.68Z"/><path d="M8.76,13,8,12.25,9.5,10.73l.61-1a.54.54,0,0,1,.24-.21l1.86-.73a.51.51,0,0,1,.48.06l1,.72-.59.81-.77-.56-1.45.57-.56.92-.06.08Z"/><path d="M12.33,13.36l-.53-.84,1.57-1,1-1.12a.52.52,0,0,1,.37-.16H16v1H15l-.93,1-.1.08Z"/></svg>