<svg id="Capa_3" data-name="Capa 3" xmlns="http://www.w3.org/2000/svg" viewBox="0 0 24 24"><defs><style>.cls-1{fill:#e01e5a;}</style></defs><path class="cls-1" d="M13.81,14.71l-1.54-3.26L19.32,8.1l1.55,3.26Zm-.21-2.78.69,1.45,5.25-2.49-.69-1.45Z"/><rect class="cls-1" x="18.09" y="11.7" width="1" height="9.19"/><rect class="cls-1" x="3.72" y="2.82" width="12.6" height="1"/><rect class="cls-1" x="3.72" y="4.7" width="12.6" height="1"/><path class="cls-1" d="M16.4,21.18H3.63a.5.5,0,0,1-.48-.35.52.52,0,0,1,.18-.56l2.2-1.6V3.18h1V18.86a.63.63,0,0,1-.21.47l-1.16.85h9.71l-1.16-.85a.54.54,0,0,1-.2-.4V14h1v4.7l2.18,1.6a.49.49,0,0,1,.18.56A.48.48,0,0,1,16.4,21.18Z"/><rect class="cls-1" x="13.51" y="3.18" width="1" height="8.01"/><rect class="cls-1" x="6.03" y="18.36" width="2.01" height="1"/></svg>