<svg id="Capa_3" data-name="Capa 3" xmlns="http://www.w3.org/2000/svg" viewBox="0 0 24 24"><defs><style>.cls-1{fill:#ffe45a;}</style></defs><path class="cls-1" d="M7.59,13.93l-.28-.72a7.38,7.38,0,0,1,9.57-9.56l.71.28Zm6.59-9.79A6.38,6.38,0,0,0,8,12.1l7.77-7.76A6.19,6.19,0,0,0,14.18,4.14Z"/><path class="cls-1" d="M10.39,11.13l-.34-.49C8.41,8.32,8,6.27,9,5.3s3-.56,5.35,1.08l.48.34Zm0-5.35A1,1,0,0,0,9.67,6c-.45.44-.27,1.78.86,3.56l2.71-2.7A5.89,5.89,0,0,0,10.39,5.78Z"/><polygon class="cls-1" points="15.28 19.36 14.28 19.36 14.28 11.07 12.01 8.8 12.72 8.09 15.28 10.66 15.28 19.36"/><rect class="cls-1" x="12.22" y="18.55" width="3.23" height="1" transform="translate(-9.71 19.1) rotate(-54.14)"/><rect class="cls-1" x="15.23" y="17.43" width="1" height="3.23" transform="translate(-8.18 12.84) rotate(-35.89)"/><rect class="cls-1" x="13.92" y="7.3" width="1" height="1.04" transform="translate(-1.31 12.48) rotate(-45)"/></svg>