<svg id="Capa_3" data-name="Capa 3" xmlns="http://www.w3.org/2000/svg" viewBox="0 0 24 24"><defs><style>.cls-1{fill:#d5134f;}</style></defs><path class="cls-1" d="M7.78,13.53h-.1a.5.5,0,0,1-.37-.31,7.38,7.38,0,0,1,9.57-9.56.51.51,0,0,1,.31.36.52.52,0,0,1-.14.46L8.13,13.39A.5.5,0,0,1,7.78,13.53Zm6.4-9.39A6.38,6.38,0,0,0,8,12.1l7.77-7.76A6.19,6.19,0,0,0,14.18,4.14Z"/><path class="cls-1" d="M10.46,10.85h-.05a.49.49,0,0,1-.36-.21C8.41,8.32,8,6.27,9,5.3s3-.56,5.35,1.08a.54.54,0,0,1,.21.37.47.47,0,0,1-.15.39l-3.56,3.57A.5.5,0,0,1,10.46,10.85Zm-.07-5.07A1,1,0,0,0,9.67,6c-.45.44-.27,1.78.86,3.56l2.71-2.7A5.89,5.89,0,0,0,10.39,5.78Z"/><path class="cls-1" d="M14.78,19.86a.5.5,0,0,1-.5-.5V11.07L12,8.8a.5.5,0,0,1,.71-.71l2.42,2.42a.5.5,0,0,1,.14.35v8.5A.5.5,0,0,1,14.78,19.86Z"/><path class="cls-1" d="M12.89,20.86a.5.5,0,0,1-.41-.79l1.9-2.62a.5.5,0,0,1,.81.58l-1.9,2.62A.48.48,0,0,1,12.89,20.86Z"/><path class="cls-1" d="M16.68,20.86a.51.51,0,0,1-.41-.21L14.38,18a.5.5,0,0,1,.11-.69.49.49,0,0,1,.7.11l1.89,2.62a.49.49,0,0,1-.11.7A.52.52,0,0,1,16.68,20.86Z"/><path class="cls-1" d="M14.78,8.69a.5.5,0,0,1-.35-.15l-.73-.73a.5.5,0,0,1,0-.71.5.5,0,0,1,.7,0l.74.74a.5.5,0,0,1,0,.7A.51.51,0,0,1,14.78,8.69Z"/></svg>